<?xml version="1.0" standalone="no"?>
<!DOCTYPE svg PUBLIC "-//W3C//DTD SVG 20010904//EN"
 "http://www.w3.org/TR/2001/REC-SVG-20010904/DTD/svg10.dtd">
<svg version="1.0" xmlns="http://www.w3.org/2000/svg"
 width="469.000000pt" height="469.000000pt" viewBox="0 0 469.000000 469.000000"
 preserveAspectRatio="xMidYMid meet">
<metadata>
Created by potrace 1.11, written by Peter Selinger 2001-2013
</metadata>
<g transform="translate(0.000000,469.000000) scale(0.100000,-0.100000)"
fill="#000000" stroke="none">
<path d="M2115 4679 c-27 -5 -72 -11 -100 -15 -126 -16 -341 -71 -495 -126
-196 -70 -465 -221 -635 -356 -104 -82 -320 -304 -402 -412 -190 -251 -330
-538 -407 -830 -28 -105 -29 -112 -53 -255 -21 -128 -22 -556 -2 -685 l14 -85
600 0 600 0 0 110 c0 61 -1 117 -3 126 -3 14 -51 16 -479 17 -268 0 -480 5
-485 10 -11 11 -14 219 -5 322 33 377 143 698 342 995 79 118 94 138 185 239
123 138 311 297 450 381 l83 49 149 -154 c162 -168 200 -220 200 -278 1 -49
-21 -333 -27 -342 -2 -3 -6 -59 -9 -125 -14 -250 -17 -291 -21 -330 -2 -22 -7
-71 -10 -109 -7 -72 -29 -162 -64 -259 -12 -32 -22 -74 -23 -94 -1 -29 -8 -39
-38 -58 -74 -47 -85 -73 -54 -133 33 -67 85 -79 143 -34 20 16 63 47 96 69 33
23 79 59 102 80 49 47 213 166 229 167 7 1 61 -64 122 -144 147 -195 155 -203
224 -219 31 -6 62 -19 69 -27 7 -9 32 -59 56 -112 24 -53 53 -118 65 -144 16
-36 27 -47 51 -52 70 -14 81 -9 105 45 16 33 28 49 37 45 8 -3 29 -8 48 -11
31 -6 35 -4 41 19 8 32 9 32 70 1 56 -29 66 -24 73 31 2 22 6 48 8 59 2 11 4
26 4 33 1 10 12 12 41 8 31 -4 42 -2 47 9 3 9 -24 65 -62 131 -78 136 -84 167
-53 301 11 49 22 102 24 118 3 17 14 73 26 125 29 133 31 147 25 172 -4 13
-47 67 -96 121 -72 79 -88 101 -78 111 34 35 218 164 241 170 14 3 26 10 26
15 0 11 58 72 89 93 33 24 32 75 -4 106 -33 28 -55 28 -89 1 -20 -16 -33 -19
-54 -13 -15 4 -36 7 -47 6 -203 -12 -280 1 -890 148 -374 90 -386 93 -400 74
-6 -9 -17 -14 -23 -10 -18 11 -14 26 6 26 15 1 14 2 -3 12 -11 6 -27 21 -35
32 -17 24 -139 155 -259 279 l-54 55 74 38 c161 81 437 169 594 189 28 4 61 9
75 12 62 13 410 11 510 -3 494 -68 909 -277 1252 -630 166 -171 322 -407 413
-624 15 -36 31 -74 36 -85 36 -86 89 -288 105 -405 3 -19 7 -48 10 -65 9 -51
17 -382 10 -409 l-6 -26 -479 0 c-374 0 -480 -3 -483 -12 -2 -7 -4 -65 -4
-128 l1 -115 596 -3 597 -3 5 23 c6 22 13 72 22 153 11 88 13 395 4 470 -16
139 -30 228 -51 315 -11 47 -22 95 -24 107 -8 41 -74 222 -115 315 -148 338
-382 642 -669 872 -318 255 -683 423 -1060 486 -63 10 -131 22 -150 25 -55 10
-439 13 -495 4z m-115 -969 c476 -111 552 -131 685 -176 71 -25 78 -26 151
-38 22 -4 52 -15 67 -25 l27 -17 -53 -39 c-130 -98 -307 -225 -311 -225 -3 0
-14 17 -25 38 -35 68 -66 80 -136 54 -36 -13 -49 -25 -66 -58 -19 -40 -21 -42
-51 -33 -44 12 -118 -33 -130 -79 -7 -27 -13 -32 -39 -32 -39 0 -105 -45 -117
-78 -5 -15 -8 -39 -7 -54 2 -25 -1 -28 -31 -28 -51 0 -104 -57 -104 -111 0
-26 8 -52 21 -71 12 -16 18 -33 13 -38 -40 -36 -206 -150 -213 -146 -33 21
-36 453 -6 736 2 19 7 93 10 165 11 245 14 273 38 291 27 19 56 15 277 -36z
m501 -476 c11 -6 49 -93 49 -111 0 -20 -97 -116 -109 -108 -5 3 -23 39 -40 80
-34 82 -34 115 3 141 19 13 74 13 97 -2z m263 -55 c23 -11 149 -149 189 -208
21 -31 20 -49 -22 -263 -17 -87 -31 -166 -31 -176 0 -10 -7 -41 -15 -69 -14
-47 -21 -54 -117 -122 -97 -68 -104 -71 -147 -67 l-46 5 55 -18 55 -18 60 42
c56 39 117 75 129 75 5 0 136 -216 136 -224 0 -1 -14 -2 -32 -2 -32 1 -32 1
-44 -67 -6 -37 -14 -70 -17 -74 -4 -3 -29 6 -56 20 l-49 27 -12 -30 c-14 -33
-17 -34 -72 -21 l-37 9 -21 -54 c-22 -54 -33 -61 -72 -46 -10 4 -33 39 -51 77
-18 39 -51 107 -72 153 l-39 82 -66 20 c-74 22 -99 44 -222 200 -85 108 -114
150 -102 150 4 0 18 -10 30 -21 13 -12 41 -25 63 -29 36 -6 43 -4 70 24 17 18
31 42 31 55 0 19 4 22 21 18 44 -12 101 29 103 73 1 25 4 30 20 26 22 -6 76
15 93 36 7 8 14 25 16 38 5 30 26 38 43 16 10 -14 4 -31 -36 -104 -27 -48 -50
-94 -51 -102 -4 -23 11 -109 20 -114 5 -3 5 13 1 36 -5 27 -3 54 5 77 19 55
153 292 183 326 24 26 76 98 95 131 4 7 0 14 -8 18 -10 3 -28 -14 -55 -54 -43
-63 -32 -58 -155 -75 -27 -3 -55 12 -55 31 0 16 86 104 101 104 15 0 10 -39
-8 -67 -13 -19 -14 -25 -4 -22 8 3 22 20 32 39 16 30 17 35 4 43 -22 12 -19
20 27 65 45 45 82 53 132 31z m-447 -37 c17 -11 129 -230 142 -279 14 -51 3
-80 -35 -89 -47 -12 -70 10 -154 151 -77 129 -80 138 -70 169 15 46 79 72 117
48z m-160 -117 c21 -15 169 -248 174 -275 11 -52 -46 -104 -88 -82 -10 6 -60
68 -111 138 -107 146 -113 171 -53 211 40 27 49 28 78 8z m438 -105 c11 -17
-25 -69 -48 -70 -10 0 -57 50 -57 61 0 4 19 10 43 12 23 2 45 4 49 5 4 1 10
-2 13 -8z m-537 -92 c77 -81 132 -151 138 -176 15 -57 -24 -99 -77 -80 -14 5
-69 51 -122 103 -109 106 -117 126 -68 176 43 43 70 38 129 -23z m-434 -255
c6 -44 4 -50 -21 -70 -21 -18 -29 -20 -31 -9 -4 19 27 126 37 126 5 0 11 -21
15 -47z"/>
<path d="M2095 4307 c-35 -9 -53 -19 -61 -35 -20 -40 3 -209 31 -232 17 -14
55 -16 122 -6 38 6 52 12 56 27 7 27 -5 31 -72 23 -62 -7 -67 -4 -75 38 -4 25
-2 26 55 33 53 6 59 9 59 30 0 22 -3 23 -59 19 -49 -5 -59 -3 -65 12 -4 10 -1
23 6 30 12 11 65 23 109 24 12 0 15 7 11 25 -5 29 -31 31 -117 12z"/>
<path d="M2571 4274 c-11 -46 -19 -88 -37 -196 -6 -34 -4 -38 20 -44 33 -8 33
-8 40 40 8 52 11 55 49 47 38 -9 63 -7 94 10 38 20 50 91 21 126 -22 27 -44
35 -131 48 l-46 7 -10 -38z m135 -49 c29 -39 -18 -75 -71 -55 -19 7 -25 15
-21 26 3 9 6 25 6 36 0 18 4 20 37 15 21 -4 43 -14 49 -22z"/>
<path d="M1755 4235 c-23 -12 -35 -29 -50 -71 -11 -31 -24 -56 -30 -56 -5 0
-15 18 -21 39 -11 39 -28 50 -53 34 -12 -8 -8 -30 28 -139 42 -129 43 -130 69
-122 16 4 26 13 23 21 -11 45 -11 86 1 102 12 17 17 15 63 -27 51 -46 69 -53
95 -36 12 8 3 22 -52 76 -71 69 -77 82 -55 124 17 33 27 70 19 70 -4 0 -21 -7
-37 -15z"/>
<path d="M3020 4172 c-8 -9 -48 -57 -88 -106 -68 -83 -72 -91 -56 -103 25 -18
39 -16 56 8 13 20 17 20 56 8 40 -12 47 -20 43 -60 -2 -14 46 -45 55 -36 2 2
7 48 10 103 3 54 7 118 8 142 3 33 -1 45 -15 52 -26 14 -52 12 -69 -8z m29
-97 c-3 -59 -8 -65 -42 -52 l-28 12 30 43 c17 23 34 42 37 42 2 0 4 -20 3 -45z"/>
<path d="M1283 4017 c-12 -5 -23 -17 -25 -26 -5 -23 53 -265 65 -273 6 -3 19
-1 29 5 15 9 18 20 14 47 -5 32 -2 37 32 57 37 21 39 21 62 3 19 -14 29 -16
47 -7 13 5 23 14 23 18 0 10 -180 162 -215 181 -5 3 -20 1 -32 -5z m73 -93
c19 -15 34 -32 34 -40 0 -17 -37 -37 -45 -25 -11 18 -34 91 -29 91 3 0 21 -12
40 -26z"/>
<path d="M3373 4013 c-7 -2 -13 -10 -13 -18 0 -7 -6 -18 -14 -24 -8 -7 -38
-46 -67 -88 l-52 -76 24 -20 c22 -18 24 -18 34 -1 5 9 21 30 35 46 l25 29 25
-26 24 -26 -18 -50 c-17 -49 -17 -51 1 -65 10 -7 23 -14 29 -14 13 0 38 71 43
123 1 4 8 7 16 7 26 0 65 47 65 78 0 19 -11 39 -37 63 -65 62 -90 75 -120 62z
m73 -86 c20 -18 25 -29 20 -45 -10 -29 -46 -29 -74 1 -20 21 -21 25 -6 45 19
28 26 28 60 -1z"/>
<path d="M996 3798 c-14 -20 -13 -24 23 -67 44 -53 76 -101 67 -101 -3 0 -39
21 -81 46 -73 46 -76 46 -95 29 -11 -10 -20 -23 -20 -29 0 -6 23 -42 50 -80
28 -38 48 -71 46 -74 -3 -2 -39 19 -82 47 -73 49 -78 51 -95 35 -11 -10 -19
-22 -19 -28 0 -11 59 -48 178 -113 61 -34 64 -34 83 -17 10 9 19 22 19 28 0 6
-23 44 -50 85 -28 40 -49 76 -46 79 3 2 38 -16 77 -42 40 -25 78 -46 84 -46
13 0 45 32 45 44 0 16 -146 226 -157 226 -6 0 -19 -10 -27 -22z"/>
<path d="M3627 3659 c-87 -81 -95 -92 -84 -110 15 -24 25 -24 52 1 19 18 95
39 95 26 0 -3 -10 -33 -21 -67 -17 -48 -19 -66 -10 -85 20 -45 37 -28 66 64
15 48 29 89 31 91 2 2 29 6 61 8 32 2 59 6 61 8 2 2 -6 13 -18 25 -20 20 -30
22 -97 18 l-74 -5 41 42 c39 40 40 42 22 58 -10 9 -21 17 -23 17 -3 0 -49 -41
-102 -91z"/>
<path d="M3440 2674 c-25 -14 -24 -14 14 -12 28 2 42 -2 50 -14 9 -15 3 -25
-38 -61 -63 -55 -59 -77 14 -77 27 0 50 5 50 10 0 6 -20 10 -45 10 -53 0 -52
12 5 53 27 19 40 36 40 51 0 43 -48 64 -90 40z"/>
<path d="M3613 2678 c-76 -20 -61 -168 17 -168 36 0 63 32 65 78 3 71 -28 105
-82 90z m46 -21 c10 -13 15 -49 12 -94 -2 -34 -34 -47 -62 -24 -42 34 -23 129
27 131 6 0 17 -6 23 -13z"/>
<path d="M3760 2677 c-20 -8 -22 -11 -7 -14 19 -5 18 -4 18 -68 0 -65 1 -65
-18 -65 -12 0 -14 -3 -6 -11 6 -6 28 -9 49 -6 31 3 35 5 18 11 -17 6 -20 15
-19 65 1 87 -5 101 -35 88z"/>
<path d="M3885 2670 c3 -5 19 -10 35 -10 l28 0 -19 -50 c-19 -51 -28 -128 -9
-85 10 23 22 57 25 68 2 4 3 8 5 10 1 1 3 9 5 17 2 8 7 25 11 38 6 21 3 22
-40 22 -29 0 -45 -4 -41 -10z"/>
<path d="M1018 2650 c-11 -12 -13 -20 -5 -23 6 -2 12 -22 13 -45 2 -60 10 -72
41 -72 26 1 27 1 8 12 -31 18 -35 31 -26 100 1 3 9 9 19 11 16 4 16 5 0 6 -10
0 -18 8 -18 16 0 20 -11 18 -32 -5z"/>
<path d="M773 2624 c-38 -38 -27 -94 24 -111 30 -11 53 -7 53 8 0 5 -13 9 -29
9 -33 0 -60 24 -40 36 6 4 28 7 48 8 25 1 36 6 37 16 2 51 -55 72 -93 34z m67
-9 c17 -20 9 -27 -34 -29 -40 -2 -40 -2 -26 25 13 23 43 25 60 4z"/>
<path d="M903 2632 c-18 -18 -2 -46 37 -62 47 -20 33 -46 -23 -42 -34 3 -28
-14 8 -20 28 -6 65 16 65 37 0 8 -19 27 -41 41 -32 20 -39 28 -28 35 8 5 22 9
32 9 9 0 17 4 17 10 0 14 -51 8 -67 -8z"/>
<path d="M1352 1733 c-61 -30 -77 -66 -77 -170 0 -86 -2 -94 -24 -110 l-24
-16 23 -19 c21 -17 23 -27 24 -113 1 -79 4 -98 22 -122 50 -67 149 -90 223
-51 73 38 86 64 86 173 1 86 3 95 24 113 l24 19 -23 16 c-22 15 -24 24 -25
109 0 106 -17 142 -79 172 -43 20 -131 20 -174 -1z m135 -131 c13 -45 8 -324
-6 -349 -14 -27 -62 -31 -81 -8 -14 17 -20 311 -7 358 15 54 79 53 94 -1z"/>
<path d="M1984 1739 c-70 -19 -104 -82 -104 -190 0 -42 5 -63 21 -83 11 -14
17 -31 14 -37 -10 -16 24 -37 72 -44 30 -4 53 -17 78 -42 38 -38 44 -66 19
-101 -35 -50 -94 -10 -94 63 0 40 -3 45 -22 46 -32 2 -82 -2 -87 -7 -2 -2 -4
-27 -4 -56 -1 -83 42 -148 112 -169 96 -29 204 29 217 116 9 60 -1 105 -30
136 -21 23 -23 28 -10 41 13 13 13 16 0 27 -8 7 -31 14 -53 17 -88 13 -140 66
-122 126 11 41 27 58 54 58 30 0 43 -18 51 -66 8 -52 10 -54 49 -54 60 0 65 6
65 73 0 59 -1 62 -45 104 -25 24 -55 43 -68 44 -12 1 -35 2 -52 4 -16 1 -44
-2 -61 -6z"/>
<path d="M3178 1732 c-67 -31 -83 -63 -84 -171 -1 -86 -3 -96 -25 -112 l-24
-18 28 -25 c20 -19 26 -32 22 -48 -37 -149 42 -257 180 -246 110 9 162 86 150
220 -6 61 -5 67 14 78 26 14 27 37 2 45 -18 5 -19 15 -18 99 2 86 0 95 -25
128 -50 65 -142 87 -220 50z m117 -116 c12 -18 16 -52 17 -142 1 -195 -1 -210
-20 -234 -23 -28 -63 -22 -79 12 -16 36 -15 315 2 355 17 41 56 46 80 9z"/>
<path d="M3678 1742 c-35 -4 -35 -10 -4 -165 22 -114 22 -118 4 -128 -18 -10
-26 -39 -10 -39 25 0 43 -32 57 -105 36 -189 34 -183 63 -189 35 -6 104 -3
118 7 7 4 15 24 19 44 5 21 9 43 10 48 2 6 8 44 14 85 10 65 15 79 43 102 l31
27 -21 18 -22 18 23 120 c13 66 22 128 19 137 -3 14 -15 18 -57 18 -58 0 -59
-1 -69 -85 -21 -165 -42 -265 -55 -265 -9 0 -28 55 -36 105 -3 22 -7 47 -10
55 -2 8 -6 40 -10 70 -9 94 -18 114 -51 120 -16 3 -41 4 -56 2z"/>
<path d="M718 1733 c-16 -4 -18 -19 -18 -142 l0 -138 -27 -12 -28 -13 27 -22
c27 -21 27 -23 30 -156 l3 -135 47 -3 c59 -4 65 7 64 116 -2 94 10 125 41 106
17 -10 47 -91 59 -157 10 -58 20 -67 80 -67 l55 0 -6 38 c-3 20 -17 73 -30
117 -30 97 -30 105 -4 149 17 29 20 50 18 133 -1 58 -7 109 -15 124 -22 43
-76 62 -184 64 -52 1 -103 0 -112 -2z m170 -109 c59 -16 41 -184 -21 -184 -42
0 -50 14 -52 87 -1 37 1 76 3 86 4 18 29 21 70 11z"/>
<path d="M2432 1732 c-18 -12 -25 -58 -12 -82 9 -17 21 -20 86 -19 101 2 107
-5 102 -99 -5 -70 -10 -82 -43 -96 -5 -2 1 -15 15 -28 25 -24 26 -29 25 -144
-1 -65 2 -127 7 -136 10 -21 92 -26 104 -6 4 6 7 68 7 137 -1 123 0 126 25
147 l26 21 -26 17 c-23 15 -25 23 -27 94 -2 73 0 79 21 88 13 6 50 9 83 7 33
-1 66 1 74 6 14 9 18 72 6 91 -8 12 -455 13 -473 2z"/>
<path d="M481 950 c-18 -4 -13 -15 50 -90 311 -378 725 -648 1184 -774 79 -21
118 -30 225 -51 105 -21 230 -30 410 -30 152 0 210 4 330 20 275 36 603 151
860 301 72 42 241 160 295 206 133 113 404 403 390 417 -3 2 -77 4 -166 4
l-160 -2 -92 -91 c-266 -266 -608 -456 -978 -545 -57 -13 -126 -27 -154 -31
-27 -3 -59 -8 -70 -11 -53 -13 -425 -11 -520 2 -479 69 -893 271 -1207 588
l-88 88 -144 2 c-80 1 -154 0 -165 -3z"/>
<path d="M1850 777 c0 -19 981 -19 987 0 3 9 -111 12 -491 13 -407 0 -496 -2
-496 -13z"/>
<path d="M2037 688 c-6 -4 -8 -10 -4 -14 9 -9 615 -10 624 -1 3 4 3 10 -1 14
-9 9 -604 10 -619 1z"/>
</g>
</svg>
